<svg xmlns="http://www.w3.org/2000/svg" xmlns:xlink="http://www.w3.org/1999/xlink" version="1.1" x="0px" y="0px" viewBox="0 0 100 100" style="enable-background:new 0 0 100 100;" xml:space="preserve"><path d="M88.7,56H88v-1.7c0-0.5-0.4-0.9-0.8-1v-6.2c0.5-0.1,0.8-0.5,0.8-1v-2.1c0,0,0-0.1,0-0.1h0.7c0.5,0,1-0.2,1.3-0.6  c0.3-0.4,0.5-0.9,0.4-1.4l-0.6-4.8c-0.1-0.9-0.9-1.5-1.8-1.5h-0.9v-1c1.3-0.4,2.3-1.6,2.3-3v-3.2c0-1.6-1.3-3-3-3H13.5  c-1.6,0-3,1.3-3,3v3.2c0,1.4,1,2.6,2.3,3v1H12c-0.9,0-1.6,0.7-1.8,1.5L9.6,42c-0.1,0.5,0.1,1,0.4,1.4c0.3,0.4,0.8,0.6,1.3,0.6H12  c0,0,0,0.1,0,0.1v2.1c0,0.5,0.4,0.9,0.8,1v6.2c-0.5,0.1-0.8,0.5-0.8,1V56h-0.7c-0.5,0-1,0.2-1.3,0.6S9.5,57.5,9.6,58l0.6,4.8  c0.1,0.9,0.9,1.5,1.8,1.5h0.9v1c-1.3,0.4-2.3,1.6-2.3,3v3.2c0,1.6,1.3,3,3,3h73.1c1.6,0,3-1.3,3-3v-3.2c0-1.4-1-2.6-2.3-3v-1H88  c0.9,0,1.6-0.7,1.8-1.5l0.6-4.8c0.1-0.5-0.1-1-0.4-1.4C89.7,56.2,89.2,56,88.7,56z M70,65.2c-1.1,0-2.2,0.2-3.3,0.7v-2.6  c0.9,0,1.6-0.7,1.7-1.5L69,57c0.1-0.5-0.1-1-0.4-1.4c-0.3-0.4-0.8-0.6-1.3-0.6h-0.6l0-1.1c0-0.6-0.4-1-1-1c0,0,0,0,0,0  c-0.5,0-1,0.4-1,1l0,1.1h-0.6c-0.5,0-1,0.2-1.3,0.6c-0.3,0.4-0.5,0.9-0.4,1.4l0.6,4.8c0.1,0.9,0.8,1.5,1.7,1.5v2.6  c-1.2-0.5-2.3-0.7-3.3-0.7H38.6c-1.1,0-2.1,0.2-3.3,0.7v-2.6c0.9,0,1.6-0.7,1.7-1.5l0.6-4.8c0.1-0.5-0.1-1-0.4-1.4  c-0.3-0.4-0.8-0.6-1.3-0.6h-0.6l0-1.1c0-0.6-0.4-1-1-1c0,0,0,0,0,0c-0.6,0-1,0.4-1,1l0,1.1h-0.6c-0.5,0-1,0.2-1.3,0.6  C31.1,56,30.9,56.5,31,57l0.6,4.8c0.1,0.8,0.8,1.5,1.7,1.5v2.6c-1.2-0.5-2.3-0.7-3.4-0.7H14.8V34.8H30c1.1,0,2.2-0.2,3.3-0.7v2.6  c-0.9,0-1.6,0.7-1.7,1.5L31,43c-0.1,0.5,0.1,1,0.4,1.4c0.3,0.4,0.8,0.6,1.3,0.6h0.6v1.2c0,0.6,0.4,1,1,1s1-0.4,1-1V45h0.6  c0.5,0,1-0.2,1.3-0.6c0.3-0.4,0.5-0.9,0.4-1.4L37,38.2c-0.1-0.9-0.8-1.5-1.7-1.5v-2.6c1.2,0.5,2.3,0.7,3.3,0.7h22.7  c1.1,0,2.1-0.2,3.3-0.7v2.6c-0.9,0-1.6,0.7-1.7,1.5L62.3,43c-0.1,0.5,0.1,1,0.4,1.4c0.3,0.4,0.8,0.6,1.3,0.6h0.6v1.2  c0,0.6,0.4,1,1,1s1-0.4,1-1V45h0.6c0.5,0,1-0.2,1.3-0.6c0.3-0.4,0.5-0.9,0.4-1.4l-0.6-4.8c-0.1-0.9-0.8-1.5-1.7-1.5v-2.6  c1.2,0.5,2.3,0.7,3.4,0.7h15.2v30.4H70z M67,57l-0.6,4.3H65L64.4,57H67z M35.6,57L35,61.3h-1.5L33,57H35.6z M33,43l0.6-4.3H35  l0.6,4.3H33z M64.4,43l0.6-4.3h1.5L67,43H64.4z M87.8,37.7l0.6,4.3h-1.2v-4.3H87.8z M12.5,28.4c0-0.5,0.4-1,1-1h73.1  c0.5,0,1,0.4,1,1v3.2c0,0.6-0.5,1.1-1.1,1.1H70c-1.2,0-2.3-0.4-3.3-0.9c0,0,0,0,0,0v-1.8c0-0.6-0.4-1-1-1s-1,0.4-1,1v1.8  c-1,0.5-2.2,0.9-3.3,0.9H38.6c-1.2,0-2.3-0.4-3.3-0.9c0,0,0,0,0,0v-1.8c0-0.6-0.4-1-1-1s-1,0.4-1,1v1.8c0,0,0,0,0,0  c-1.1,0.5-2.2,0.9-3.3,0.9H13.6c-0.6,0-1.1-0.5-1.1-1.1V28.4z M12.2,37.7h0.7V42h-1.2L12.2,37.7z M12.2,62.3L11.6,58h1.2v4.3H12.2z   M87.5,71.6c0,0.5-0.4,1-1,1H13.5c-0.5,0-1-0.4-1-1v-3.2c0-0.6,0.5-1.1,1.1-1.1H30c1.2,0,2.3,0.4,3.3,0.9c0,0,0,0,0,0v1.8  c0,0.6,0.4,1,1,1s1-0.4,1-1v-1.8c1-0.5,2.2-0.9,3.3-0.9h22.7c1.2,0,2.3,0.4,3.3,0.9c0,0,0,0,0,0v1.8c0,0.6,0.4,1,1,1s1-0.4,1-1v-1.8  c0,0,0,0,0,0c1.1-0.5,2.2-0.9,3.3-0.9h16.3c0.6,0,1.1,0.5,1.1,1.1V71.6z M87.8,62.3h-0.7V58h1.2L87.8,62.3z"></path></svg>